<svg fill="none" height="12" viewBox="0 0 6 12" width="6" xmlns="http://www.w3.org/2000/svg" xmlns:xlink="http://www.w3.org/1999/xlink"><mask id="a" height="12" maskUnits="userSpaceOnUse" width="6" x="0" y="0"><path d="m.641813 9.75562c-.275785.30908-.248813.78318.060243 1.05898.309054.2758.783164.2488 1.058944-.0603l4.02-4.50496c.25388-.2845.25388-.7142 0-.9987l-4.02-4.50499c-.27578-.309056-.74989-.336028-1.058944-.060243-.309056.275785-.336028.749893-.060243 1.058943l3.574407 4.00564z" fill="#fff"/></mask><path d="m.641813 9.75562c-.275785.30908-.248813.78318.060243 1.05898.309054.2758.783164.2488 1.058944-.0603l4.02-4.50496c.25388-.2845.25388-.7142 0-.9987l-4.02-4.50499c-.27578-.309056-.74989-.336028-1.058944-.060243-.309056.275785-.336028.749893-.060243 1.058943l3.574407 4.00564z" fill="#003778"/><g mask="url(#a)"><path d="m0 0h6v12h-6z" fill="#00549a"/></g></svg>