<svg xmlns="http://www.w3.org/2000/svg" width="24" height="24" fill="currentColor" viewBox="0 0 24 24">
  <path d="M16.848 1.221a.75.75 0 0 1 1.058-.005l4.87 4.798a.75.75 0 0 1 .004 1.064l-2.74 2.74a.704.704 0 0 1-.045.046l-10.71 10.71a.75.75 0 0 1-.371.223l-6.94 2.169a.75.75 0 0 1-.94-.94l2.181-6.978a.75.75 0 0 1 .184-.306L14.08 4.004a.752.752 0 0 1 .17-.17l2.599-2.613Zm-2.154 4.293-9.521 9.572 2.238 1.197a.75.75 0 0 1 .307.307l1.195 2.234 9.517-9.517-3.736-3.793Zm4.797 2.732 1.694-1.694-3.8-3.744-1.633 1.642 3.74 3.796ZM2.893 21.107l4.747-1.483-1.137-2.126-2.127-1.137-1.483 4.746Z"/>
</svg>
